<svg xmlns="http://www.w3.org/2000/svg" xmlns:xlink="http://www.w3.org/1999/xlink" viewBox="0 0 200 41"><defs><style>.cls-1{fill:#231f20;}.cls-2{opacity:0.1;}.cls-3{fill:url(#linear-gradient);}.cls-4{fill:#fff;}.cls-5{fill:url(#linear-gradient-2);}</style><linearGradient id="linear-gradient" x1="44.27" y1="7.04" x2="73.2" y2="35.97" gradientTransform="matrix(1, 0, 0, -1, 0, 42)" gradientUnits="userSpaceOnUse"><stop offset="0.21" stop-color="#fff"/><stop offset="0.42" stop-color="#fff" stop-opacity="0"/><stop offset="0.59" stop-color="#fff" stop-opacity="0"/><stop offset="0.81" stop-color="#fff"/></linearGradient><linearGradient id="linear-gradient-2" x1="44.27" y1="34.96" x2="73.2" y2="6.04" gradientUnits="userSpaceOnUse"><stop offset="0.21" stop-color="#fff"/><stop offset="0.42" stop-color="#fff" stop-opacity="0"/><stop offset="0.59" stop-color="#fff" stop-opacity="0"/><stop offset="0.81" stop-color="#fff"/></linearGradient></defs><title>studio_logo_temp</title><g id="Layer_2" data-name="Layer 2"><rect class="cls-1" width="200" height="41"/></g><g id="Layer_1" data-name="Layer 1"><g class="cls-2"><path class="cls-3" d="M46.78,36a3.54,3.54,0,0,0,2.68-1.23h0L73.7,6.66a3.53,3.53,0,0,0-3-1.66h0A3.55,3.55,0,0,0,68,6.21L43.67,34.16A3.54,3.54,0,0,0,46.78,36Z"/><path class="cls-4" d="M46.78,36a3.57,3.57,0,0,0,1.63-.4V12.13L67.23,34.71A3.52,3.52,0,0,0,69.93,36h.75a3.54,3.54,0,0,0,3.56-3.52V8.54A3.54,3.54,0,0,0,70.7,5h0a3.52,3.52,0,0,0-1.62.39V28.87L50.25,6.29A3.56,3.56,0,0,0,47.54,5h-.76a3.54,3.54,0,0,0-3.54,3.53h0V32.46A3.54,3.54,0,0,0,46.77,36Z"/><path class="cls-4" d="M152.46,5H76.81a5.45,5.45,0,0,1,1.3,3.55V32.46A5.38,5.38,0,0,1,76.81,36h75.65a4.31,4.31,0,0,0,4.3-4.31V9.31A4.31,4.31,0,0,0,152.46,5Z"/></g><path class="cls-4" d="M86.1,25.56A1.08,1.08,0,0,1,86.7,24a1.13,1.13,0,0,1,1.4.33A4.56,4.56,0,0,0,92,26.37c2.31,0,3.86-1.08,3.86-2.69v-.14c0-4.32-9.94-.58-9.94-7V16.3c0-2.81,2.44-4.69,6.1-4.69a6.13,6.13,0,0,1,5.54,2.77A1,1,0,0,1,97,15.93a1.07,1.07,0,0,1-1.38-.31A4.14,4.14,0,0,0,92,13.7c-2.21,0-3.68,1-3.68,2.46v.14c0,4.34,10,.58,10,7v.27c0,2.95-2.56,4.94-6.36,4.94C89.36,28.46,87.05,27.53,86.1,25.56Z"/><path class="cls-4" d="M106.25,27.32a.88.88,0,0,1-1,.93h-.87c-2,0-3.29-1.18-3.29-3V18.45h-.95a.89.89,0,0,1-1-.95.87.87,0,0,1,1-.93h1V14.46a1.07,1.07,0,0,1,1.16-1.19,1,1,0,0,1,1.14,1.19v2.11h2a.87.87,0,0,1,1,.93.88.88,0,0,1-1,.95h-2v6.72a1.12,1.12,0,0,0,1.18,1.2h.62A.88.88,0,0,1,106.25,27.32Z"/><path class="cls-4" d="M117.84,17.63V27.2c0,.76-.37,1.22-1,1.22a1.09,1.09,0,0,1-1.14-1.2v-.38A4.32,4.32,0,0,1,108,24.1V17.63a1.18,1.18,0,1,1,2.36,0v6.11a2.59,2.59,0,1,0,5.17,0V17.63a1.18,1.18,0,1,1,2.35,0Z"/><path class="cls-4" d="M130.59,12.87V27.2c0,.76-.37,1.22-1.07,1.22s-1.1-.44-1.12-1.2V26.6a4.36,4.36,0,0,1-3.74,1.86A4.5,4.5,0,0,1,120,23.6V21.22a4.48,4.48,0,0,1,4.67-4.85A4.37,4.37,0,0,1,128.24,18V12.87a1.18,1.18,0,1,1,2.35,0Zm-2.35,10.48v-1.9a2.95,2.95,0,1,0-5.89,0v1.9a2.95,2.95,0,1,0,5.89,0Z"/><path class="cls-4" d="M133.24,13.29v-.54a1.18,1.18,0,0,1,2.35,0v.54a1.18,1.18,0,0,1-2.35,0Zm0,13.91V17.63a1.18,1.18,0,1,1,2.35,0V27.2a1.18,1.18,0,1,1-2.35,0Z"/><path class="cls-4" d="M137.72,23.43v-2c0-3,2.13-5,5.29-5s5.31,2,5.31,5v2c0,3-2.12,5-5.31,5S137.72,26.45,137.72,23.43Zm8.25-.08V21.47a2.95,2.95,0,1,0-5.89,0v1.88a2.95,2.95,0,1,0,5.89,0Z"/><path class="cls-5" d="M46.78,36a3.57,3.57,0,0,0,2.69-1.23h0L73.7,6.66A3.54,3.54,0,0,0,70.7,5h0A3.54,3.54,0,0,0,68,6.22L43.67,34.16A3.55,3.55,0,0,0,46.78,36Z"/><path class="cls-4" d="M46.78,36a3.66,3.66,0,0,0,1.63-.39V12.14L67.23,34.73A3.56,3.56,0,0,0,70,36h.75a3.55,3.55,0,0,0,3.54-3.54V8.54A3.55,3.55,0,0,0,70.7,5h0a3.61,3.61,0,0,0-1.61.39V28.86L50.25,6.27A3.58,3.58,0,0,0,47.52,5h-.74a3.54,3.54,0,0,0-3.54,3.54V32.46A3.54,3.54,0,0,0,46.78,36Z"/></g></svg>